<svg preserveAspectRatio="none" width="100%" height="100%" overflow="visible" style="display: block;" viewBox="0 0 13 15.9993" fill="none" xmlns="http://www.w3.org/2000/svg">
<path id="Fill" fill-rule="evenodd" clip-rule="evenodd" d="M6.50133 11C6.468 11 6.43467 10.9967 6.40267 10.99C6.38267 10.986 6.36333 10.98 6.344 10.9733C6.33667 10.9713 6.32333 10.9673 6.31067 10.962C6.28533 10.9513 6.26467 10.94 6.24467 10.928C6.23333 10.9227 6.22933 10.92 6.21867 10.9127C6.19533 10.8973 6.17 10.8767 6.14733 10.8533L3.14733 7.85335C3.05267 7.75868 3.00067 7.63335 3.00067 7.50002C3.00067 7.36668 3.05267 7.24068 3.14733 7.14668C3.24133 7.05202 3.36733 7.00002 3.50067 7.00002C3.634 7.00002 3.76 7.05202 3.854 7.14668L6.00067 9.29335V0.5C6.00067 0.224 6.22467 0 6.50067 0C6.77667 0 7.00067 0.224 7.00067 0.5V9.29335L9.14733 7.14668C9.242 7.05202 9.36733 7.00002 9.50067 7.00002C9.634 7.00002 9.76 7.05202 9.854 7.14668C9.94867 7.24068 10.0007 7.36668 10.0007 7.50002C10.0007 7.63335 9.94867 7.75935 9.854 7.85335L6.854 10.8533C6.83067 10.8767 6.80533 10.8973 6.778 10.916C6.76933 10.922 6.75333 10.9307 6.74333 10.936C6.73667 10.9407 6.716 10.952 6.694 10.9613C6.68333 10.966 6.66267 10.9727 6.652 10.9753C6.63867 10.98 6.61933 10.986 6.59933 10.99C6.568 10.9967 6.53467 11 6.50133 11ZM2.5 15.9993C1.12133 15.9993 0 14.878 0 13.4993V4.99934C0 3.62067 1.12133 2.49934 2.5 2.49934H4C4.276 2.49934 4.5 2.72334 4.5 2.99934C4.5 3.27534 4.276 3.49934 4 3.49934H2.5C1.67267 3.49934 1 4.172 1 4.99934V13.4993C1 14.3267 1.67267 14.9993 2.5 14.9993H10.5C11.3273 14.9993 12 14.3267 12 13.4993V4.99934C12 4.172 11.3273 3.49934 10.5 3.49934H9.00133C8.72533 3.49934 8.50133 3.27534 8.50133 2.99934C8.50133 2.72334 8.72533 2.49934 9.00133 2.49934H10.5C11.8787 2.49934 13 3.62067 13 4.99934V13.4993C13 14.878 11.8787 15.9993 10.5 15.9993H2.5Z" fill="#222126"/>
</svg>
