<svg preserveAspectRatio="none" width="100%" height="100%" overflow="visible" style="display: block;" viewBox="0 0 16 16" fill="none" xmlns="http://www.w3.org/2000/svg">
<g id="LinkedIn 1">
<path id="Vector" d="M13.6667 1.33333H2.33333C2.06812 1.33333 1.81376 1.43869 1.62623 1.62623C1.43869 1.81376 1.33333 2.06812 1.33333 2.33333V13.6667C1.33333 13.9319 1.43869 14.1862 1.62623 14.3738C1.81376 14.5613 2.06812 14.6667 2.33333 14.6667H13.6667C13.9319 14.6667 14.1862 14.5613 14.3738 14.3738C14.5613 14.1862 14.6667 13.9319 14.6667 13.6667V2.33333C14.6667 2.06812 14.5613 1.81376 14.3738 1.62623C14.1862 1.43869 13.9319 1.33333 13.6667 1.33333ZM5.33333 12.6667H3.33333V6.66667H5.33333V12.6667ZM4.33333 5.5C4.10412 5.49345 3.88192 5.4195 3.6945 5.28738C3.50708 5.15527 3.36274 4.97086 3.27953 4.75718C3.19632 4.54351 3.17792 4.31005 3.22663 4.08598C3.27534 3.86191 3.389 3.65716 3.55341 3.49732C3.71782 3.33747 3.92569 3.22962 4.15104 3.18724C4.3764 3.14486 4.60924 3.16983 4.82049 3.25903C5.03174 3.34823 5.21201 3.4977 5.33879 3.68877C5.46557 3.87983 5.53324 4.10403 5.53333 4.33333C5.52807 4.6469 5.39889 4.94563 5.17403 5.16424C4.94918 5.38286 4.64692 5.50357 4.33333 5.5ZM12.6667 12.6667H10.6667V9.50667C10.6667 8.56 10.2667 8.22 9.74667 8.22C9.59421 8.23015 9.44525 8.27032 9.30836 8.3382C9.17147 8.40609 9.04934 8.50035 8.94899 8.61557C8.84863 8.73079 8.77203 8.86471 8.72358 9.00962C8.67513 9.15453 8.65579 9.30759 8.66667 9.46C8.66336 9.49102 8.66336 9.52231 8.66667 9.55333V12.6667H6.66667V6.66667H8.6V7.53333C8.79502 7.23667 9.06295 6.99505 9.37813 6.83162C9.6933 6.6682 10.0452 6.58844 10.4 6.6C11.4333 6.6 12.64 7.17333 12.64 9.04L12.6667 12.6667Z" fill="#292221"/>
</g>
</svg>
