<svg width="48" height="48" viewBox="0 0 48 48" fill="none" xmlns="http://www.w3.org/2000/svg">
<g id="TB_Favicon">
<rect width="48" height="48" rx="4" fill="#B73300"/>
<path id="T" d="M17.048 13.6H29.32C29.5973 13.6 29.832 13.552 30.024 13.456C30.2267 13.36 30.4027 13.2693 30.552 13.184C30.7013 13.088 30.8453 13.04 30.984 13.04C31.144 13.04 31.2667 13.0827 31.352 13.168C31.448 13.2533 31.528 13.4133 31.592 13.648L32.648 18.976C32.68 19.136 32.6693 19.2693 32.616 19.376C32.5733 19.4827 32.488 19.5467 32.36 19.568C32.2427 19.5893 32.136 19.5733 32.04 19.52C31.944 19.4667 31.8587 19.3707 31.784 19.232C31.2507 17.8667 30.7707 16.8427 30.344 16.16C29.9173 15.4773 29.4853 15.024 29.048 14.8C28.6213 14.5653 28.12 14.448 27.544 14.448H25V34.384C25 34.5653 25.0587 34.7093 25.176 34.816C25.2933 34.9227 25.464 34.9973 25.688 35.04L26.936 35.248C27.2027 35.312 27.336 35.4453 27.336 35.648C27.336 35.8827 27.176 36 26.856 36H19.608C19.4373 36 19.3093 35.968 19.224 35.904C19.1493 35.8293 19.112 35.744 19.112 35.648C19.112 35.4453 19.2453 35.312 19.512 35.248L20.776 35.04C21 34.9973 21.1707 34.9227 21.288 34.816C21.4053 34.7093 21.464 34.5653 21.464 34.384V14.448H18.904C18.3387 14.448 17.8373 14.5707 17.4 14.816C16.9627 15.0613 16.5307 15.5253 16.104 16.208C15.688 16.8907 15.208 17.8987 14.664 19.232C14.6 19.3707 14.52 19.4667 14.424 19.52C14.328 19.5733 14.216 19.5893 14.088 19.568C13.9707 19.5467 13.8853 19.4827 13.832 19.376C13.7893 19.2693 13.784 19.136 13.816 18.976L14.872 13.648C14.9253 13.4133 14.9947 13.2533 15.08 13.168C15.176 13.0827 15.304 13.04 15.464 13.04C15.6027 13.04 15.736 13.088 15.864 13.184C16.0027 13.2693 16.1627 13.36 16.344 13.456C16.536 13.552 16.7707 13.6 17.048 13.6Z" fill="white"/>
</g>
</svg>
